<svg xmlns="http://www.w3.org/2000/svg" xmlns:xlink="http://www.w3.org/1999/xlink" width="31" height="44" viewBox="0 0 31 44">
  <defs>
    <clipPath id="clip-path">
      <rect id="Rectangle_1" data-name="Rectangle 1" width="31" height="44" fill="#fff"/>
    </clipPath>
  </defs>
  <g id="Objet_dynamique_vectoriel" data-name="Objet dynamique vectoriel" transform="translate(-279 -669)">
    <g id="Objet_dynamique_vectoriel-2" data-name="Objet dynamique vectoriel" transform="translate(279 669)">
      <g id="Groupe_2" data-name="Groupe 2">
        <g id="Groupe_1" data-name="Groupe 1" clip-path="url(#clip-path)">
          <path id="Tracé_1" data-name="Tracé 1" d="M10.943.7A12.8,12.8,0,0,1,14.288.034a15.4,15.4,0,0,1,5.094.45A12.837,12.837,0,0,1,26.275,5.24,12.207,12.207,0,0,1,28.589,11.2c.1.934.06,1.874.069,2.813q0,8.5,0,17a12.512,12.512,0,0,1-.414,3.217c.669.012,1.34-.013,2.01.012a.818.818,0,0,1,.743.868q0,4.011,0,8.024a.828.828,0,0,1-.853.857q-14.59.013-29.179,0A.851.851,0,0,1,0,43.135q0-4.01,0-8.02a.828.828,0,0,1,.849-.882q5.078-.006,10.157,0A4.523,4.523,0,0,1,9.3,30.8c-.006-1.339,0-2.676,0-4.014a.836.836,0,0,1,.875-.871q4.829,0,9.658,0a.829.829,0,0,1,.883.756c.021.485,0,.971.007,1.457.7,0,1.408-.008,2.111,0a.811.811,0,1,1-.013,1.622c-.7.012-1.4,0-2.1,0a9.318,9.318,0,0,1-.1,1.894,4.693,4.693,0,0,1-1.6,2.583c2.5-.006,4.991,0,7.487,0A10.581,10.581,0,0,0,26.987,31q0-8.766,0-17.533a17.2,17.2,0,0,0-.092-2.391,10.758,10.758,0,0,0-3.579-6.642A11.182,11.182,0,0,0,16.6,1.659a14.343,14.343,0,0,0-4.081.279A11.186,11.186,0,0,0,5.929,6.4a10.556,10.556,0,0,0-1.917,6.1q0,7.682,0,15.363c.013,1.354-.033,2.709.031,4.062q-.832.06-1.663.124c-.027-.383-.041-.766-.039-1.15q0-9.2,0-18.4A12.132,12.132,0,0,1,3.578,7.132,12.762,12.762,0,0,1,10.943.7m.023,26.848c0,1.083,0,2.167,0,3.25a2.916,2.916,0,0,0,1.082,2.17,4.722,4.722,0,0,0,5.851.057,2.944,2.944,0,0,0,1.146-2.234c.008-1.081,0-2.163,0-3.245q-4.042,0-8.084,0m-9.295,8.32q0,3.248,0,6.5,13.829,0,27.657,0c0-2.163,0-4.327,0-6.491q-13.829-.024-27.66,0" fill="#fff"/>
          <path id="Tracé_2" data-name="Tracé 2" d="M12.991,5.631a6.8,6.8,0,0,1,4.617-.148,6.616,6.616,0,0,1,3.525,2.723,6.348,6.348,0,0,1,.751,5.147,6.561,6.561,0,0,1-3.617,4.138c-.006,1.188.008,2.377-.006,3.564a.823.823,0,0,1-.875.8q-1.887,0-3.774,0a.822.822,0,0,1-.875-.8c-.013-1.189,0-2.38-.007-3.57A6.578,6.578,0,0,1,9.3,13.911a6.346,6.346,0,0,1,.151-4.945,6.571,6.571,0,0,1,3.539-3.335m1.295,1.3a4.945,4.945,0,0,0-2.813,1.865,4.753,4.753,0,0,0-.824,3.829,4.866,4.866,0,0,0,2.98,3.465,1.2,1.2,0,0,1,.64.416,1.334,1.334,0,0,1,.139.766c-.009.988,0,1.977,0,2.965.731,0,1.462,0,2.194,0,0-1.1-.009-2.2,0-3.3a.887.887,0,0,1,.716-.825,4.779,4.779,0,0,0,1.033-8.454,5.046,5.046,0,0,0-4.063-.727" fill="#fff"/>
          <path id="Tracé_3" data-name="Tracé 3" d="M22.4,18.043a1.328,1.328,0,1,1-.14,2.556,1.319,1.319,0,0,1-.836-1.791,1.359,1.359,0,0,1,.976-.765" fill="#fff"/>
        </g>
      </g>
    </g>
    <path id="Color_Overlay" data-name="Color Overlay" d="M279,712.135q0-4.009,0-8.021a.828.828,0,0,1,.849-.882q5.077-.007,10.157,0A4.52,4.52,0,0,1,288.3,699.8c-.006-1.338,0-2.676,0-4.014a.837.837,0,0,1,.876-.871q4.829,0,9.658,0a.829.829,0,0,1,.883.756c.021.485,0,.971.006,1.457.278,0,.556,0,.834,0,.426,0,.851,0,1.277,0a.812.812,0,1,1-.013,1.623c-.444.007-.887,0-1.329,0-.256,0-.511,0-.766,0a9.323,9.323,0,0,1-.1,1.894,4.692,4.692,0,0,1-1.6,2.583q2-.005,4.01,0,1.737,0,3.477,0a10.577,10.577,0,0,0,.483-3.226q0-8.767,0-17.534a17.229,17.229,0,0,0-.092-2.39,10.76,10.76,0,0,0-3.579-6.642,11.175,11.175,0,0,0-6.721-2.777,14.3,14.3,0,0,0-4.081.279,11.184,11.184,0,0,0-6.585,4.461,10.553,10.553,0,0,0-1.917,6.1q0,7.683,0,15.364c.013,1.354-.033,2.709.031,4.062q-.832.059-1.662.124c-.027-.383-.041-.766-.039-1.15q0-9.2,0-18.405a12.129,12.129,0,0,1,1.237-5.364,12.856,12.856,0,0,1,10.711-7.1,15.373,15.373,0,0,1,5.093.45,12.836,12.836,0,0,1,6.894,4.757,12.209,12.209,0,0,1,2.314,5.961c.1.934.059,1.875.068,2.813q0,8.5,0,17a12.493,12.493,0,0,1-.414,3.217c.286.005.573,0,.861,0,.383,0,.766,0,1.149.011a.818.818,0,0,1,.745.78v.056c0,.011,0,.021,0,.031q0,4.011,0,8.024a.829.829,0,0,1-.853.858q-8.859.007-17.717,0-5.732,0-11.463,0a.851.851,0,0,1-.961-.858Zm1.668-7.272q0,3.248,0,6.5,13.829,0,27.658,0c0-2.164,0-4.327,0-6.492q-5.825-.011-11.651-.009Q288.675,704.858,280.671,704.863Zm9.3-8.32c0,1.083,0,2.166,0,3.25a2.918,2.918,0,0,0,1.081,2.17,4.722,4.722,0,0,0,5.851.057,2.943,2.943,0,0,0,1.146-2.234c.008-1.081,0-2.163,0-3.245h-3.675Q292.171,696.542,289.967,696.543Zm6.42-5.688q-1.887,0-3.774,0a.822.822,0,0,1-.876-.8c-.013-1.19,0-2.38-.006-3.57a6.578,6.578,0,0,1-3.429-3.575,6.344,6.344,0,0,1,.151-4.945,6.568,6.568,0,0,1,3.539-3.335,6.8,6.8,0,0,1,4.617-.148,6.621,6.621,0,0,1,3.525,2.722,6.352,6.352,0,0,1,.751,5.148,6.565,6.565,0,0,1-3.617,4.138c-.005,1.188.007,2.376-.005,3.564a.824.824,0,0,1-.816.8Zm-3.1-14.929a4.951,4.951,0,0,0-2.813,1.865,4.757,4.757,0,0,0-.824,3.829,4.869,4.869,0,0,0,2.98,3.466,1.2,1.2,0,0,1,.64.416,1.323,1.323,0,0,1,.139.766c-.008.988,0,1.977,0,2.966.732,0,1.463,0,2.194,0,0-1.1-.008-2.2,0-3.3a.889.889,0,0,1,.716-.824,4.779,4.779,0,0,0,1.033-8.455,5.052,5.052,0,0,0-4.064-.727ZM301.26,689.6a1.32,1.32,0,0,1-.837-1.791,1.346,1.346,0,1,1,1.23,1.856A1.218,1.218,0,0,1,301.26,689.6Z" fill="#fff"/>
  </g>
</svg>
